<svg xmlns="http://www.w3.org/2000/svg" version="1.1" xmlns:xlink="http://www.w3.org/1999/xlink" xmlns:svgjs="http://svgjs.dev/svgjs" width="1440" height="650" preserveAspectRatio="none" viewBox="0 0 1440 650"><g mask="url(&quot;#SvgjsMask1006&quot;)" fill="none"><rect width="1440" height="650" x="0" y="0" fill="url(&quot;#SvgjsLinearGradient1007&quot;)"></rect><path d="M1512 650L0 650 L0 162.69Q51.27 93.97, 120 145.24Q212.06 117.31, 240 209.37Q328.99 226.36, 312 315.34Q292.07 175.41, 432 155.48Q485.44 88.92, 552 142.36Q602.19 120.55, 624 170.74Q685.45 160.19, 696 221.65Q793.75 199.39, 816 297.14Q825.26 234.4, 888 243.66Q915.83 199.49, 960 227.32Q1055.57 202.89, 1080 298.46Q1099.96 246.42, 1152 266.38Q1220.93 215.31, 1272 284.25Q1292.31 184.56, 1392 204.86Q1420.16 113.03, 1512 141.19z" fill="#182f5d"></path><path d="M1536 650L0 650 L0 349.38Q32.66 262.04, 120 294.71Q169.8 272.51, 192 322.31Q300.2 310.51, 312 418.72Q384.07 370.79, 432 442.86Q461.52 400.38, 504 429.91Q503.95 357.86, 576 357.81Q589.88 299.69, 648 313.57Q693.68 239.25, 768 284.93Q871.41 268.35, 888 371.76Q968.72 332.48, 1008 413.19Q1011.94 345.13, 1080 349.07Q1108.97 306.04, 1152 335.01Q1160.15 271.16, 1224 279.32Q1296.87 280.19, 1296 353.06Q1364.57 301.63, 1416 370.19Q1503.12 337.31, 1536 424.43z" fill="#25467d"></path><path d="M1512 650L0 650 L0 503.95Q6.71 390.66, 120 397.37Q187.58 344.95, 240 412.53Q317.53 370.06, 360 447.59Q447.8 415.39, 480 503.19Q519.49 422.68, 600 462.17Q689.32 431.49, 720 520.81Q786.45 467.26, 840 533.71Q880.35 454.06, 960 494.41Q1053.53 467.94, 1080 561.46Q1127 488.46, 1200 535.46Q1248.29 463.75, 1320 512.04Q1336.15 408.19, 1440 424.35Q1465.45 377.8, 1512 403.25z" fill="#356cb1"></path><path d="M1464 650L0 650 L0 526.95Q34.38 489.33, 72 523.71Q142.71 474.42, 192 545.13Q241.47 522.6, 264 572.07Q383.84 571.91, 384 691.75Q404.32 592.07, 504 612.39Q553.18 541.57, 624 590.75Q650.8 497.55, 744 524.34Q822.01 482.35, 864 560.36Q943.82 520.18, 984 600Q1079.54 575.54, 1104 671.08Q1138.25 585.33, 1224 619.58Q1252.21 527.79, 1344 556Q1422.92 514.92, 1464 593.85z" fill="white"></path></g><defs><mask id="SvgjsMask1006"><rect width="1440" height="650" fill="#ffffff"></rect></mask><linearGradient x1="13.72%" y1="-30.38%" x2="86.28%" y2="130.38%" gradientUnits="userSpaceOnUse" id="SvgjsLinearGradient1007"><stop stop-color="#0e2a47" offset="0"></stop><stop stop-color="rgba(153, 189, 234, 1)" offset="1"></stop></linearGradient></defs></svg>