<svg xmlns="http://www.w3.org/2000/svg" version="1.1" xmlns:xlink="http://www.w3.org/1999/xlink" xmlns:svgjs="http://svgjs.dev/svgjs" width="1440" height="650" preserveAspectRatio="none" viewBox="0 0 1440 650"><g mask="url(&quot;#SvgjsMask1008&quot;)" fill="none"><rect width="1440" height="650" x="0" y="0" fill="rgba(59, 7, 100, 1)"></rect><circle r="9.76" cx="299.49" cy="238.78" filter="url(#SvgjsFilter1009)" fill="rgba(233, 213, 255, 1)"></circle><circle r="9.25" cx="631.87" cy="588.83" filter="url(#SvgjsFilter1009)" fill="rgba(233, 213, 255, 1)"></circle><circle r="10.39" cx="684.4499999999999" cy="235.95" filter="url(#SvgjsFilter1009)" fill="rgba(233, 213, 255, 1)"></circle><circle r="5.76" cx="722.46" cy="527.77" filter="url(#SvgjsFilter1009)" fill="rgba(233, 213, 255, 1)"></circle><circle r="8.87" cx="1185.58" cy="403.24" filter="url(#SvgjsFilter1009)" fill="rgba(233, 213, 255, 1)"></circle><circle r="9.275" cx="316.29499999999996" cy="343.245" filter="url(#SvgjsFilter1009)" fill="rgba(233, 213, 255, 1)"></circle><circle r="5.505" cx="536.225" cy="216.595" filter="url(#SvgjsFilter1009)" fill="rgba(233, 213, 255, 1)"></circle><circle r="9.27" cx="1244.51" cy="566.03" filter="url(#SvgjsFilter1009)" fill="rgba(233, 213, 255, 1)"></circle><circle r="9.785" cx="1044.375" cy="352.425" filter="url(#SvgjsFilter1009)" fill="rgba(233, 213, 255, 1)"></circle><circle r="7.2" cx="259.57" cy="50.870000000000005" filter="url(#SvgjsFilter1009)" fill="rgba(233, 213, 255, 1)"></circle><circle r="10.435" cx="75.72500000000001" cy="259.09499999999997" filter="url(#SvgjsFilter1009)" fill="rgba(233, 213, 255, 1)"></circle><circle r="5.45" cx="1005.3000000000001" cy="104" filter="url(#SvgjsFilter1009)" fill="rgba(233, 213, 255, 1)"></circle><circle r="7.325" cx="575.235" cy="624.0350000000001" filter="url(#SvgjsFilter1009)" fill="rgba(233, 213, 255, 1)"></circle><circle r="7.235" cx="1187.985" cy="543.855" filter="url(#SvgjsFilter1009)" fill="rgba(233, 213, 255, 1)"></circle><circle r="9.285" cx="148.695" cy="607.015" filter="url(#SvgjsFilter1009)" fill="rgba(233, 213, 255, 1)"></circle><circle r="5.59" cx="1428.4199999999998" cy="225.64000000000001" filter="url(#SvgjsFilter1009)" fill="rgba(233, 213, 255, 1)"></circle><circle r="6.835" cx="335.42499999999995" cy="342.61499999999995" filter="url(#SvgjsFilter1009)" fill="rgba(233, 213, 255, 1)"></circle><circle r="8.01" cx="1262.46" cy="355.21999999999997" filter="url(#SvgjsFilter1009)" fill="rgba(233, 213, 255, 1)"></circle><circle r="8.865" cx="1250.665" cy="325.375" filter="url(#SvgjsFilter1009)" fill="rgba(233, 213, 255, 1)"></circle><circle r="6.42" cx="154.88" cy="25.060000000000002" filter="url(#SvgjsFilter1009)" fill="rgba(233, 213, 255, 1)"></circle><path d="M1376.4 576.3L1362.1 525.3 1368.9 512.4 1401.5 511.8 1409.4 524.5 1396.3 575.9C1396.3 576.6 1396.3 576.6 1396.3 577.2 1396.3 578.5 1397 579.7 1398.9 580.4 1400.8 580.3 1402.1 579.7 1402.7 577.7L1414.1 532.7 1425.9 552.3 1421.2 572.3C1421.2 572.3 1421.2 572.9 1421.2 572.9 1421.2 574.2 1421.9 575.5 1423.8 576.1 1425.1 576.7 1427 575.4 1427.6 573.4L1431.2 560.6 1439.8 575.1C1440.4 576.4 1442.4 577 1444.3 576.3S1446.1 573.1 1445.5 571.2L1436.9 557.3 1449.8 560.2C1451.7 560.8 1453.6 559.5 1454.2 557.6 1454.2 556.3 1453.5 554.4 1451.6 553.8L1431.6 549 1419.7 528.8 1464.8 540.1C1466.7 540.7 1468.6 539.4 1469.2 538.1 1469.2 536.2 1468.5 534.3 1466.6 533.7L1415.1 521.2 1407.2 507.9 1422.7 480.1 1438.1 479.8 1476.5 516.2C1477.8 517.5 1479.7 517.4 1481 516.1S1482.2 512.9 1480.9 511.7L1447 479.6 1470.7 479.2 1485 493C1486.3 494.3 1488.2 494.2 1490.1 492.9S1491.4 489.7 1490.1 488.4L1479.6 479 1496.9 478.7C1498.8 478.7 1500.1 476.7 1500.1 474.8 1500 472.9 1498.7 471.6 1496.8 471.7L1479.5 472 1488.9 462.2C1490.8 460.9 1490.8 459 1488.9 457.7 1487.6 456.5 1485.6 456.5 1484.4 457.8L1470.6 472.2 1446.9 472.6 1479.6 439.3C1480.8 438 1480.8 435.5 1479.5 434.2S1476.3 433 1475 434.3L1437.9 472.7 1422.6 473 1406.1 445.2 1413.5 432.2 1464.5 417.9C1466.4 417.2 1467 415.2 1466.9 413.3 1466.3 411.4 1464.3 410.8 1462.4 410.9L1417.8 423.8 1429 403.8 1448.7 398.3C1450.6 397.6 1451.2 395.7 1451.2 393.8 1450.6 392.5 1448.6 391.3 1446.7 391.9L1434 395.4 1442 380.5C1442.6 379.2 1442 377.3 1440.7 376 1438.7 375.4 1436.8 376.1 1436.2 377.4L1428.1 392.3 1424.1 378.9C1423.4 377.6 1421.5 376.4 1420.2 377.1 1418.3 377.1 1417.7 378.4 1417.7 380.3 1417.7 380.3 1417.7 380.9 1417.7 380.9L1423.2 400.7 1412 420.7 1399 376.2C1398.4 374.2 1397.1 373 1395.2 373.7 1393.3 374.3 1392.6 375.6 1392.7 376.9 1392.7 377.6 1392.7 377.6 1392.7 377.6L1407.7 429.1 1400.2 442.1 1367.6 442.7 1360.3 430 1372.8 377.9C1373.5 376.6 1372.1 374.7 1370.8 374.1 1368.9 373.5 1367 374.8 1366.4 376.7L1355.1 421.8 1343.2 402.1 1347.9 382.2C1348.6 380.3 1347.9 378.4 1346 378.4 1344 377.8 1342.1 379.1 1341.5 380.4L1338.6 393.9 1330 379.3C1328.7 378.1 1326.7 377.5 1324.8 378.1 1324.2 378.8 1323.6 380.1 1323.6 381.4 1323.6 382 1323.6 382 1324.3 382.6L1332.9 397.2 1319.4 394.2C1317.4 393.6 1316.2 394.9 1315.6 396.2 1315.6 396.9 1315.6 396.9 1315.6 397.5 1315.6 398.8 1316.3 400.1 1317.6 400.7L1337.5 405.4 1349.4 425.1 1304.4 413.7C1302.4 413.8 1300.5 414.4 1300.6 416.4 1299.9 417 1299.9 417 1299.9 417.6 1300 418.9 1301.3 420.2 1302.6 420.8L1354.6 433.3 1361.9 446 1346.4 474.4 1331.7 474.7 1293.3 437.6C1292 436.3 1289.4 436.4 1288.1 437.7S1286.9 441.6 1288.2 442.8L1322.1 474.8 1299.1 475.3 1284.1 461.5C1282.8 460.2 1280.9 460.2 1279.6 461.5 1278.4 462.8 1278.4 464.8 1279.7 466L1289.5 475.4 1272.2 475.8C1270.9 475.8 1269 477.1 1269.1 479 1269.1 480.9 1271 482.8 1272.3 482.8L1289.6 482.5 1280.2 492.3C1279.5 492.9 1278.9 493.6 1278.9 494.2 1279 495.5 1279.6 496.1 1280.3 496.7 1281.6 498 1283.5 498 1284.7 496.7L1299.2 482.3 1322.2 481.9 1289.6 515.1C1288.9 515.8 1288.9 516.4 1289 517.7 1289 518.3 1289 519 1289.6 519.6 1290.9 520.9 1293.5 520.8 1294.8 519.5L1331.8 481.7 1346.5 481.4 1363 508.7 1356.3 522.2 1304.7 536.6C1303.4 537.3 1302.1 538.6 1302.2 539.9 1302.2 540.5 1302.2 540.5 1302.8 540.5 1302.8 542.4 1304.8 543.7 1306.7 543L1351.3 530 1340.1 550.7 1320.4 556.2C1319.1 556.8 1318.5 558.1 1318.5 559.4 1318.5 559.4 1318.5 560 1318.5 560 1318.6 562 1320.5 563.2 1322.4 562.5L1335.8 558.5 1327.7 573.3C1327.1 574 1327.1 574.6 1327.1 575.3 1327.2 576.5 1327.8 577.8 1328.5 577.8 1330.4 579 1332.3 578.4 1333.6 577.1L1341.6 562.2 1345 574.9C1345.7 576.8 1347.7 578.1 1349.6 577.4 1350.8 576.7 1352.1 574.8 1351.4 573.5L1345.9 553.8 1357.1 533.7 1370.1 578.3C1370.7 580.2 1372.7 580.8 1374.6 580.8 1375.9 580.1 1377.1 578.2 1376.4 576.3ZM1397.5 504.8L1372.6 505.3 1368.7 505.4 1366.8 502.2 1354.2 481.3 1352.2 477.5 1354.1 474.3 1365.9 452.9 1367.7 449.7 1371.6 449.6 1396.5 449.2 1400.4 449.1 1402.3 452.3 1414.9 473.2 1416.9 476.3 1415 480.2 1403.2 501.5 1401.4 504.8 1397.5 504.8Z" fill="rgba(233, 213, 255, 1)"></path><path d="M518 115.8L505.6 131.6 500.1 119.3C499.6 118 497.8 117.1 495.8 117.5 494.4 118.6 493.5 120.4 494 121.8L500.9 138.1 489.4 152.8 475.6 119.4C474.6 117.4 472.7 116.5 471.3 117.6 469.3 118 468.4 119.8 469.5 121.9L484.8 158.7 474.7 172.2 435.9 167.3 429.9 153.6 456.1 120.2C456.2 119.5 456.3 118.9 456.4 118.3 456.5 117.6 456 116.3 455.4 115.6 453.7 114.1 451.7 114.4 450.8 116.3L426.9 146.8 420.1 129.8 431.8 113.8C432.4 113.9 432.5 113.3 432.6 112.7 432.7 111.4 432.3 110 431.1 109.2 429.9 108.4 427.9 108.8 426.5 109.9L417.1 122.9 408.1 101.8C407.7 100.5 405.8 99.6 403.9 100 402.4 101.1 401.6 102.9 402 104.3L410.5 124 397.1 122.3C395.2 122.1 393.7 123.8 393.6 125.1 393.3 127 394.4 129.1 396.3 129.3L413.4 131.5 420.3 148.5 384.7 144C382.8 143.7 381.4 144.9 381.1 146.8 380.9 148.7 382 150.1 383.9 150.3L423.3 155.3 429.8 169.7 405.9 200.9 391.3 199 375.4 161.5C375 159.5 372.5 158.6 371.1 159.7 369.1 160.1 368.9 162 369.3 164L383.6 198 365.2 195.7 358.4 178.7C357.9 177.3 355.4 176.4 354.1 176.9S351.8 179.8 352.2 181.8L357.6 194.7 335.4 191.9C333.5 191.7 332 193.4 331.7 195.3 331.6 196.6 332.6 198.6 334.5 198.9L356.7 201.7 348.1 213.5C347.3 214.7 347.1 216.6 348.8 218.1 350 218.9 352.6 218.6 353.4 217.4L364.3 202.7 382.8 205 360.3 234.4C359.4 236.3 359.2 238.2 360.9 239.7 362.1 240.5 364.7 240.2 365.5 239L390.4 206 405 207.9 420.4 244 410.4 256.3 371.1 251.3C369.2 251 367.7 252.1 367.5 254.1 367.2 256 368.3 258 370.2 258.3L405.7 262.8 394.8 277.5 377.7 275.3C375.8 275.1 374.3 276.2 374.1 278.1 373.9 280 375 281.5 376.9 281.7L390.2 283.4 377.1 300.4C376.3 301.6 376.6 304.2 377.8 305 379.6 305.9 381.5 306.2 382.4 304.3L396.2 286.7 402.2 301C403.3 302.5 405.1 303.4 406.4 302.9 407.8 302.4 408.6 301.2 408.7 299.9 408.7 299.9 408.8 299.3 408.3 298.6L400.9 280.2 411.8 265.5 427.3 301C427.7 303 429.5 303.9 431.6 302.9 432.3 302.3 433 301.7 433.2 300.5 433.3 299.8 433.4 299.2 433.4 298.6L416.5 259.6 425.7 247.9 464.4 252.8 470.8 268.5 446.8 300.3C445.3 302 445.6 304 447.5 304.9 448.6 306.3 450.6 305.9 452.1 304.2L473.8 275.3 481.3 292.4 470.5 306.5C469.7 307.7 470.1 309.7 471.2 311.1 473 312 474.9 312.2 475.8 310.4L484.2 299.9 492.2 318.3C492.6 320.3 494.5 320.5 496.5 320.1 497.2 319.6 498 318.4 498.2 317.1 498.2 317.1 498.2 316.5 498.3 315.9L489.9 296.1 505.8 298.1C507 298.3 509.1 297.2 509.3 295.3 509.6 293.4 507.8 291.9 506.6 291.7L486.9 289.2 479.4 272.2 518.1 277.1C520 277.3 521.5 275.6 521.8 273.7S520.9 270.3 519 270.1L476.5 264.7 470.5 250.4 494.5 219.2 511 221.3 526.8 259.5C527.9 260.9 529.7 261.8 531.7 261.4 532.4 260.8 533.2 259.7 533.4 258.4 533.5 257.7 533.5 257.1 533 256.4L518.6 222.3 537 224.7 544.5 241.7C545 243.1 546.8 244 548.8 243.6 550.2 242.5 551.1 240.6 550.7 239.3L544.6 225.6 565 228.2C566.2 228.4 568.4 226.7 568.5 225.4 568.8 223.5 567.1 221.4 565.9 221.2L545.5 218.6 554.7 207.5C554.8 206.9 554.9 206.3 554.9 205.6 555.1 204.4 554.6 203 554.1 202.3 552.2 201.4 550.3 201.8 548.8 202.9L537.9 217.7 519.5 215.3 542 185.9C543.5 184.2 543.1 182.2 541.9 181.4 540.1 179.9 538.2 180.3 536.7 181.4L511.9 214.4 495.4 212.3 480 176.1 489.3 163.7 531.8 169.2C533.7 169.4 535.2 168.3 535.4 166.4 535.7 164.5 534.5 163 532.6 162.8L493.9 157.9 505.5 143.2 525.1 145.7C526.4 145.9 528.6 144.2 528.8 142.3 529 140.4 527.3 138.9 526 138.7L510.2 136.7 523.3 119.7C523.4 119 523.4 119 523.4 118.4 523.6 117.1 523.1 115.8 522.6 115.1 520.8 114.2 518.8 114.6 518 115.8ZM487.8 211.3L489.2 215.3 486.9 218.3 467.5 243.6 465.2 246.5 461.4 246 430.3 242 426.5 241.6 425 238.1 412.6 208.8 411.1 205.4 413.5 201.8 432.7 177.2 435.1 173.6 438.9 174.1 470.1 178.1 473.9 178.6 475.3 182.6 487.8 211.3Z" fill="rgba(233, 213, 255, 1)"></path><path d="M291.4 308.2L283.9 314.9 282.3 308.3C282.1 307.6 281.3 307 280.3 307 279.5 307.5 278.9 308.3 279 309L281 317.7 274 323.8 270.2 306.2C269.9 305.1 269 304.5 268.2 304.9 267.2 304.9 266.6 305.7 267 306.8L271.2 326.3 265 332.1 246.4 326.2 244.7 318.9 260.5 304.8C260.6 304.5 260.7 304.2 260.8 303.9 260.9 303.6 260.8 302.9 260.6 302.5 259.9 301.6 258.9 301.6 258.3 302.4L243.8 315.3 241.9 306.3 249.1 299.5C249.4 299.6 249.5 299.3 249.6 299 249.8 298.4 249.7 297.7 249.2 297.2 248.7 296.7 247.7 296.7 246.9 297.1L241.1 302.7 238.6 291.5C238.5 290.8 237.7 290.2 236.6 290.2 235.8 290.6 235.2 291.4 235.4 292.1L237.7 302.6 231.3 300.6C230.4 300.3 229.5 301 229.3 301.6 229 302.5 229.4 303.6 230.3 303.9L238.5 306.5 240.4 315.5 223.3 310.1C222.4 309.8 221.6 310.2 221.3 311.2 221 312.1 221.4 312.9 222.3 313.2L241.2 319.2 243.2 326.8 228.6 340 221.6 337.8 217.1 317.9C217.1 316.9 216 316.2 215.2 316.6 214.2 316.6 213.9 317.5 213.9 318.5L217.9 336.6 209.1 333.8 207.2 324.8C207.1 324.1 206 323.4 205.3 323.5S203.9 324.8 203.9 325.8L205.4 332.6 194.7 329.3C193.8 329 192.9 329.7 192.6 330.6 192.4 331.2 192.7 332.3 193.7 332.6L204.3 336 199 341C198.5 341.5 198.3 342.5 199 343.4 199.5 343.9 200.8 343.9 201.3 343.4L208 337.2 216.8 340 203.2 352.4C202.6 353.2 202.3 354.1 203 355 203.5 355.5 204.8 355.6 205.3 355.1L220.5 341.1 227.5 343.3 231.8 362.5 225.8 367.7 206.9 361.7C206 361.4 205.2 361.8 204.9 362.7 204.6 363.6 205 364.7 205.9 365L223 370.4 216.3 376.7 208 374.1C207.1 373.8 206.3 374.2 206 375.1 205.7 376 206.1 376.9 207.1 377.1L213.5 379.2 205.5 386.4C205 386.9 204.9 388.2 205.4 388.7 206.2 389.3 207.1 389.6 207.7 388.8L216.1 381.4 217.8 388.9C218.2 389.7 219 390.3 219.7 390.2 220.4 390.1 220.9 389.6 221.1 389 221.1 389 221.2 388.7 221 388.3L219 378.6 225.7 372.3 230.1 391.2C230.2 392.2 231 392.8 232.1 392.5 232.5 392.3 232.9 392 233.1 391.4 233.2 391.1 233.3 390.8 233.4 390.5L228.5 369.8 234.1 364.9 252.7 370.8 254.5 379.1 239.8 392.5C238.9 393.3 238.9 394.3 239.7 394.9 240.1 395.7 241.1 395.7 242 394.9L255.3 382.7 257.5 391.8 250.9 397.7C250.4 398.3 250.4 399.3 250.8 400.1 251.6 400.7 252.6 401 253.1 400.1L258.2 395.7 260.5 405.5C260.5 406.5 261.4 406.8 262.5 406.8 262.9 406.6 263.4 406.1 263.5 405.5 263.5 405.5 263.6 405.2 263.7 404.8L261.4 394.4 269 396.8C269.6 397 270.7 396.6 271 395.7 271.3 394.8 270.6 393.9 270 393.7L260.5 390.7 258.3 381.6 276.9 387.5C277.9 387.8 278.8 387.1 279.1 386.2S278.9 384.5 278 384.2L257.6 377.7 255.9 370.1 270.5 357 278.5 359.5 282.8 379.7C283.2 380.5 284 381.1 285 381.1 285.4 380.8 285.9 380.3 286.1 379.7 286.2 379.4 286.3 379.1 286.1 378.7L282.1 360.7 291 363.5 293.1 372.5C293.2 373.2 294 373.8 295.1 373.8 295.9 373.4 296.5 372.6 296.3 371.9L294.6 364.6 304.4 367.7C305 367.9 306.2 367.3 306.4 366.7 306.7 365.8 306.1 364.6 305.4 364.4L295.7 361.3 301.2 356.6C301.3 356.3 301.4 356 301.5 355.7 301.7 355.1 301.6 354.4 301.3 354 300.5 353.4 299.5 353.4 298.7 353.8L292 360.1 283.2 357.3 296.9 344.9C297.8 344.1 297.7 343.1 297.2 342.6 296.5 341.7 295.5 341.7 294.7 342.1L279.5 356.1 271.6 353.6 267.3 334.5 272.9 329.2 293.4 335.7C294.3 336 295.1 335.6 295.4 334.7 295.7 333.7 295.3 332.9 294.4 332.6L275.7 326.7 282.7 320.6 292.2 323.6C292.8 323.8 294 323.1 294.3 322.2 294.6 321.3 293.9 320.4 293.3 320.2L285.6 317.8 293.6 310.6C293.7 310.3 293.7 310.3 293.8 310 294 309.4 293.9 308.7 293.7 308.3 292.9 307.7 291.9 307.7 291.4 308.2ZM267.9 352.5L268.3 354.6 266.9 355.8 255.1 366.5 253.7 367.8 251.9 367.2 236.9 362.4 235.1 361.9 234.6 360 231.2 344.5 230.7 342.7 232.2 341.1 243.9 330.8 245.4 329.2 247.3 329.8 262.2 334.5 264 335.1 264.4 337.2 267.9 352.5Z" fill="rgba(233, 213, 255, 1)"></path><path d="M137.4 642.9L142.4 626.9 149.6 634C150.3 634.8 151.8 634.9 153.1 634.1 153.8 632.9 153.9 631.4 152.7 630.7L144 621.5 147.3 608.8 165.4 628.1C166.6 628.8 168.1 628.9 168.9 628.2 170.1 626.9 170.2 625.4 169 624.7L148.9 603.5 154.6 584.3 168.5 602.6 172.3 579.9 186.2 594.3 178.3 622.4C177.9 622.5 178 623 178.1 623.5 178.3 624.4 179 625.2 180.1 625.4 181.1 625.7 182.4 624.9 183.1 623.7L190.2 598.2 199 607.9 195.6 620.1C195.2 620.7 195.3 621.2 195.5 621.6 195.6 622.1 196.3 622.9 197.3 623.2 198.4 623.4 199.7 622.6 199.9 621.5L202.9 611.9 214.8 623.8C215.6 625.1 217 624.7 218.3 623.9 219.1 623.2 219.2 621.7 217.9 620.5L206.6 608.5 216.3 606.1C217.7 605.7 218.3 604.1 218.1 603.2 217.7 601.8 216.6 601.1 215.2 601.4L202.6 604.5 193.8 594.9 218.9 588.6C220.3 588.3 221 587.1 220.7 585.7 220.5 584.8 219.2 583.6 217.8 584L189.8 590.9 175.9 576.5 198.4 573.5 181 559 200.5 554.1 220.5 574.9C221.8 576.1 223.2 575.7 224 575 224.8 574.3 224.9 572.8 224.1 571.5L205.6 552.9 218.2 549.8 227.4 558.9C228.2 560.1 229.7 560.3 230.9 559 231.7 558.3 231.8 556.8 230.6 555.6L223.8 548.4 240.1 544.3C241.5 544 242.2 542.8 241.9 541.4S240.4 539.3 239 539.7L222.7 543.7 225.3 534.2C225.8 532.5 225 531.3 224 531 222.4 530.4 221.1 531.2 221 532.8L217.1 545.1 204.5 548.2 212.1 523.1C212.2 521.6 211.4 520.3 210.4 520 208.8 519.5 207.5 520.3 207.4 521.8L199.4 549.5 179.8 554.3 188.5 533.4 167.1 541.1 172.8 521.9 200.7 515C202.1 514.7 202.7 513 202.5 512.1 202.1 510.7 201 510 199.6 510.4L174 516.7 177.7 503.9 190.3 500.8C191.7 500.4 192.4 499.3 192.1 497.9 191.8 496.9 190.5 495.8 189.1 496.1L179.4 498.5 183.8 482.6C184.4 481 183.6 479.7 182.1 479.6 181 479.3 179.6 479.7 179.5 481.2L174.6 497.3 167.4 490.1C166.7 489.3 165.2 489.2 164.4 489.9 163.5 490.6 163.3 491.6 163.4 492.1 163.5 492.6 163.7 493 164.2 493.4L172.9 502.6 169.7 515.3 151.5 496C150.4 495.3 148.9 495.2 148.1 495.9 147.2 496.6 147 497.6 147.2 498.6 147.3 499 147.3 499 147.9 499.4L168 520.6 162.4 539.8 148.5 521.5 144.7 544.2 130.7 529.9 138.6 501.7C138.8 500.7 138.5 499.3 136.9 498.7 135.8 498.4 134.5 499.2 133.8 500.4L126.8 525.9 118 516.2 121.4 504C122.1 502.8 121.3 501.5 119.6 501 118.6 500.7 117.3 501.5 116.6 502.7L114 512.2 102.2 500.3C101.4 499 100 499.4 98.7 500.2 98.3 500.8 98.1 501.8 98.2 502.3 98.3 502.8 98.4 503.2 99 503.6L110.4 515.6 100.6 518C99.2 518.4 98.6 520 98.9 520.9L98.9 520.9C99.2 522.3 100.4 523 101.8 522.7L114.3 519.6 123.2 529.3 98 535.5C96.6 535.8 95.9 537 96.3 538.4S97.8 540.5 99.2 540.1L127.1 533.2 141.1 547.6 118.6 550.7 136 565.1 116.4 570 96.5 549.2C95.2 548 93.8 548.4 93 549.1 92.2 549.8 92 551.3 92.8 552.6L110.8 571.4 98.7 574.4 89.5 565.3C88.7 564 87.2 563.9 86.1 565.1 85.2 565.8 85.1 567.3 85.9 568.6L93.1 575.7 76.8 579.8C75.4 580.1 74.7 581.3 75.1 582.7S76.6 584.8 78 584.4L94.3 580.4 91.7 589.9C91.3 590.5 91.5 591 91.6 591.5 91.8 592.4 92.4 592.7 93 593.1 94.6 593.7 95.9 592.9 96 591.4L99.9 579 112.5 575.9 104.8 601C104.9 601.5 105.1 602 105.2 602.4 105.4 603.4 106 603.7 106.6 604.1 108.2 604.7 109.5 603.8 109.6 602.3L117.6 574.6 137.2 569.8 128.5 590.7 149.8 583 144.2 602.2 116.2 609.1C114.8 609.4 114.2 611.1 114.5 612 114.8 613.4 116 614.1 117.4 613.8L142.5 607.5 139.2 620.2 126.7 623.3C125.3 623.7 124.6 624.8 124.9 626.2S126.4 628.3 127.8 628L137.6 625.6 133.1 641.5C132.8 642.1 132.9 642.6 133 643 133.1 643.5 133.8 644.3 134.9 644.5 135.9 644.8 137.3 644.4 137.4 642.9ZM136.9 582.7L144 565.6 129.7 553.8 148.4 551.2 151.3 533.2 162.8 547.6 180.1 541.4 172.9 558.5 187.2 570.3 169 572.8 165.6 590.9 154.6 576.4 136.9 582.7Z" fill="rgba(233, 213, 255, 1)"></path><path d="M948.1 532.9L940.8 482.3 952.3 467.6 954.7 484.7C954.5 486.6 956.3 487.5 958.2 487.7 959.6 487.2 961.1 485.5 960.6 484.2L957.7 460.6 968.6 445.8 975.5 462.8 966.3 484.9C966.3 484.9 966.2 485.5 966.2 485.5 966.1 486.8 967.2 488.2 968.4 489 970.3 489.2 971.6 488.7 972.5 486.9L979 471 985.9 487.9 967.2 535.3C967.2 535.3 966.4 535.8 966.4 535.8 966.3 537.1 967.4 538.5 968.6 539.3 970.4 540.2 972.5 539.2 972.7 537.2L989.4 496.1 998.5 516.6 991 535C991 535 991 535 991 535.6 990.8 536.9 991.3 538.3 992.5 539.1 994.4 539.3 996.4 538.9 997.2 537.1L1002 524.8 1008.5 539.8C1008.9 541.7 1010.8 542 1012.2 541.5 1014.1 541.1 1015 539.3 1014 537.2L1008.1 522.3 1019.7 527.6C1021.6 527.8 1023.6 527.4 1023.8 525.5 1024.7 523.7 1024.2 522.4 1022.4 521.5L1004 514 995.5 493.7 1037.3 510.4C1038.5 511.2 1040.6 510.2 1041.4 508.4 1041.6 507.1 1041.2 505.1 1039.4 504.3L992 485.5 985.1 468.5 1001.1 475C1002.9 475.9 1004.3 474.8 1005.2 472.9 1006 471.7 1005 469.7 1003.8 468.9L981.6 460.3 974.1 443.3 992.5 445.5 1006.9 464.1C1008.1 465.5 1010 465.8 1011.4 464.7 1012.7 464.2 1013.1 461.6 1011.9 460.2L1001.4 446.7 1019.8 448.9 1050.9 489.6C1052 491 1053.9 491.2 1055.3 490.1 1056.7 489 1057 487.1 1055.9 485.7L1028.7 450 1050.3 452.7 1062.5 468.4C1063.6 469.9 1065.5 470.1 1067 469 1068.4 467.9 1068.6 466 1067.5 464.5L1059.8 453.9 1075.7 455.9C1077.6 456.1 1079 455 1079.3 453.1 1079.5 451.2 1078.4 449.8 1076.5 449.5L1060.6 447.6 1070.6 439.8C1072 438.7 1072.3 436.8 1071.1 435.3S1068.1 433.7 1066.7 434.8L1051.7 446.5 1029.5 443.7 1064.5 416.4C1065.9 415.3 1066.1 413.4 1065 412 1063.9 410.6 1062 410.3 1060.6 411.4L1020.6 442.6 1002.2 440.3 1015.7 429.7C1017.2 428.6 1017.4 426.7 1016.3 425.3 1015.2 423.9 1013.3 423.6 1011.8 424.7L993.3 439.2 975.5 437 986.3 422.8 1009.9 419.3C1011.3 418.9 1012.8 417.1 1012.3 415.8 1011.9 413.8 1010.7 413 1008.8 412.7L991.7 415.1 1002.5 401 1053.1 393.7C1055.1 393.3 1055.9 392.2 1056.1 390.2 1055.7 388.3 1053.9 387.4 1052.6 387.2L1008 393.3 1021.8 375.7 1040.8 372.9C1042.8 373.1 1043.6 371.3 1043.9 369.4 1043.4 368 1041.6 366.5 1039.7 366.9L1027.2 368.6 1036.5 355.6C1038 354.5 1037.6 352.5 1035.8 351 1034.6 350.2 1032.7 350.6 1031.9 351.8L1021.9 364.7 1020.3 351.6C1019.9 349.6 1018 348.8 1016.7 349.2 1014.8 349 1014 350.2 1013.8 351.5 1013.8 352.1 1013.8 352.1 1013.7 352.7L1016.5 371.8 1002.7 389.4 996.5 345.4C996.8 343.5 994.9 342.7 993 342.4 991.7 342.9 990.9 344.1 990.7 345.4 990.7 346 990.7 346 990.7 346L997.2 397.1 986.4 411.3 984 394.2C983.6 392.2 982.4 391.4 980.5 391.2 979.2 391.7 977.8 392.8 977.6 394 977.5 394.7 977.5 394.7 977.4 395.3L981 419 970.2 433.1 963.2 416.8 971.7 394.6C972.6 392.8 971.6 390.7 970.4 389.9 968.5 389.7 966.5 390.1 966.2 392L959.7 407.9 952.1 391.5 971.6 343.6C972.4 342.4 971.4 340.4 970.2 339.6 968.3 339.4 966.3 339.8 965.4 341.6L948.7 382.7 940.3 362.3 947.6 344.5C948.5 342.7 947.5 340.6 945.6 340.4 944.4 339.6 942.4 340 941.5 341.8L936.8 354.1 930.2 339.1C929.8 337.8 927.9 336.9 926 337.3 925.2 337.9 924.4 339.1 924.3 340.3 924.3 340.3 924.2 341 924.1 341.6L930.7 356.6 918.3 351.9C917.2 351.1 915.1 352.1 914.3 353.3 914.2 353.9 914.2 353.9 914.2 353.9 914 355.8 915.1 357.3 916.4 357.4L934.2 364.8 943.2 385.3 901.4 368.5C899.5 368.2 898.2 368.7 897.3 370.5 897.3 370.5 897.2 371.2 897.2 371.2 897.1 372.4 897.6 373.8 899.4 374.7L946.6 394.1 953.6 410.4 937.7 403.9C935.8 403.7 933.8 404.1 933.5 406 932.9 405.9 932.8 406.5 932.8 406.5 932.7 407.8 933.8 409.2 935 410L957.1 418.6 964.1 435.6 946.3 433.4 931.8 414.8C930.7 413.4 928.2 413.1 926.7 414.2 925.9 415.4 925.7 417.3 926.2 418.6L937.4 432.3 919 430 887.8 390C886.7 388.6 884.8 388.3 883.4 389.4 881.9 390.5 881.7 392.4 882.8 393.9L910.1 428.9 887.8 426.1 876.2 411.1C875 409.7 873.1 409.4 871.7 410.6S870 413.6 871.2 415L878.9 425 863.1 423C861.2 422.8 859.7 423.9 859.5 425.8 859.3 427.7 860.4 429.1 862.3 429.4L878.2 431.3 868.1 439.8C867.4 440.3 866.7 440.9 866.6 441.5 866.5 442.2 867 443.5 867.5 444.2 868.6 445.6 870.6 445.9 872 444.8L887.1 432.5 909.3 435.2 874.2 463.1C873.5 463.7 872.8 464.2 872.7 464.9 872.6 465.5 873.1 466.8 873.7 467.6 874.8 469 876.7 469.2 878.1 468.1L918.2 436.3 936.6 438.6 922.4 449.1C921.7 449.7 921.5 450.9 921.4 451.6 921.4 452.2 921.3 452.8 921.8 453.5 923 455 925.5 455.3 926.3 454.1L945.5 439.7 963.3 441.9 952.4 456.7 928.8 459.6C927.5 460 926.1 461.2 925.9 462.4 925.8 463.1 925.8 463.1 926.5 463.1 926.2 465 928 466.6 929.9 466.2L947 463.8 936.1 478.5 885 485.1C883.7 485.6 882.9 486.8 882.7 488 882.7 488.7 882.7 488.7 882.7 488.7 883 490.6 884.2 492.1 886.1 491.7L930.8 485.6 917 503.2 897.9 506C895.9 506.4 895.1 507.6 895 508.9 895 508.9 894.9 509.5 894.9 509.5 895.3 511.5 897.1 512.4 898.4 512.5L911.6 510.3 901.6 523.3C901.5 523.9 901.4 524.5 901.3 525.2 901.3 525.8 901.7 527.1 902.3 527.9 904.1 528.7 906 529 906.9 527.1L916.9 514.2 918.5 527.3C918.9 529.3 920.7 530.1 922 530.3 924 529.9 924.8 528.1 925.1 526.2L922.3 507.1 935.4 489.4 941.6 533.4C942 535.4 943.7 536.9 945.1 536.4 947.1 536 948.5 534.9 948.1 532.9Z" fill="rgba(233, 213, 255, 1)"></path><path d="M1377 193L1350.4 192.2 1334.3 174.9 1357.4 169.6 1379.8 183.8C1379.8 183.8 1380.1 183.9 1380.1 183.9 1380.7 184.1 1381.5 183.6 1382 183.1 1382.6 182.3 1382.2 181.2 1381.3 180.9L1361.7 168.5 1372.9 165.9 1381.6 171.3C1381.6 171.3 1381.9 171.4 1381.9 171.4 1382.5 171.6 1383.3 171.1 1383.8 170.6 1384.4 169.8 1384.1 168.7 1383.1 168.4L1377.3 164.6 1385.5 162.8C1386.2 162.7 1386.9 161.5 1386.8 160.8 1386.8 159.8 1385.6 159.4 1384.9 159.6L1376.6 161.4 1380.4 155.5C1381 154.7 1380.7 153.6 1379.7 153.3 1378.9 152.7 1377.8 153.1 1377.5 154L1372.2 162.7 1361.1 165 1373.5 145.4C1374.1 144.5 1373.7 143.4 1372.8 143.2 1372 142.6 1370.9 142.9 1370.6 143.8L1356.4 166.2 1333.3 171.6 1340.3 148.6 1363.9 136.1C1364.7 135.7 1365 134.7 1364.6 133.9 1364.2 133.1 1363.2 132.9 1362.4 133.3L1341.7 144.3 1345 133.3 1353.8 128.6C1354.6 128.2 1354.9 127.3 1354.5 126.5 1354.1 125.7 1353.1 125.4 1352.3 125.8L1346.3 129 1349 120.5C1349.6 119.6 1348.8 118.7 1347.9 118.5 1347 118.2 1346.2 118.6 1345.9 119.5L1343.5 127.5 1340.3 121.5C1339.9 120.7 1338.9 120.4 1338.1 120.8S1337.1 122.2 1337.5 123L1342.2 131.8 1338.8 142.8 1327.8 122C1327.3 121.2 1326.4 120.9 1325.6 121.3 1324.8 121.8 1324.5 122.7 1325 123.5L1337.5 147.1 1330.5 169.7 1314.4 152.4 1315.3 126.6C1315.3 125.5 1314.5 125 1313.5 124.7 1312.5 124.7 1311.9 125.5 1311.7 126.4L1310.9 149.6 1303.1 141.2 1303.6 131C1303.6 130 1302.7 129.4 1301.8 129.1 1300.8 129.1 1300.2 130 1300 130.6L1299.9 137.6 1294.1 131.4C1293.6 130.9 1292.3 130.6 1291.7 131.4 1291.2 132.2 1290.9 133.1 1291.7 133.7L1297.5 139.8 1290.5 139.7C1289.5 139.7 1288.9 140.6 1288.7 141.2 1288.9 141.9 1289.3 142.7 1289.9 142.9 1289.9 142.9 1290.2 143 1290.2 143L1300.4 143.4 1308.2 151.8 1285 151.1C1284 151.1 1283.4 151.9 1283.3 152.5 1283.4 153.2 1283.8 154 1284.4 154.2 1284.4 154.2 1284.7 154.3 1284.7 154.3L1311.3 155.1 1327.4 172.4 1304.3 177.7 1281.9 163.5C1281.1 162.9 1280 163.3 1279.7 164.2 1279.1 165 1279.4 166.1 1280.4 166.4L1300 178.8 1288.8 181.4 1280.1 176C1279.3 175.4 1278.2 175.7 1277.9 176.7 1277.3 177.5 1277.6 178.6 1278.5 178.9L1284.4 182.7 1276.1 184.5C1275.4 184.6 1274.8 185.7 1274.9 186.5 1275 187.2 1275.5 187.7 1276.1 187.8 1276.4 187.9 1276.7 188 1277.1 187.8L1285.4 186 1281.6 191.9C1281 192.7 1281.3 193.8 1282.2 194.1 1282.2 194.1 1282.6 194.2 1282.6 194.2 1283.2 194.3 1284 193.9 1284.5 193.4L1289.8 184.7 1301 182.1 1288.6 201.7C1288 202.5 1288.4 203.6 1289.3 203.9 1289.3 203.9 1289.6 204 1289.6 204 1290.2 204.2 1291 203.8 1291.5 203.3L1305.7 180.8 1328.8 175.5 1321.8 198.2 1298.2 210.7C1297.4 211.1 1297.2 212 1297.6 212.8 1298 213.6 1298.9 213.9 1299.7 213.5L1320.4 202.7 1317 213.8 1308.3 218.4C1307.5 218.9 1307.2 219.8 1307.6 220.6S1308.9 221.7 1309.7 221.2L1315.7 218 1313.3 226C1313 226.9 1313.4 227.7 1314.4 228 1315.3 228.3 1316.1 227.9 1316.4 226.9L1318.8 219 1322 225C1322.2 225.4 1322.4 225.8 1323 226S1324 225.9 1324.4 225.7C1325.2 225.3 1325.5 224.4 1325.1 223.6L1320.4 214.8 1323.8 203.8 1334.8 224.6C1335 225 1335.2 225.4 1335.9 225.5 1336.2 225.6 1336.9 225.5 1337.3 225.3 1338.1 224.9 1338.3 224 1337.9 223.2L1325.4 199.6 1332.3 176.9 1348.5 194.3 1347.7 220.8C1347.8 221.5 1348.2 222.3 1348.8 222.5 1348.8 222.5 1349.1 222.6 1349.1 222.6 1350.2 222.6 1350.7 221.7 1350.9 221.1L1351.7 197.9 1359.5 206.3 1359 216.6C1359.1 217.3 1359.6 218.1 1360.2 218.3 1360.2 218.3 1360.5 218.4 1360.5 218.4 1361.5 218.3 1362.1 217.5 1362.3 216.9L1362.4 209.9 1368.2 216.1C1368.5 216.1 1368.7 216.5 1369 216.6 1369.7 216.8 1370.4 216.7 1370.9 216.2 1371.4 215.4 1371.7 214.4 1370.9 213.9L1365.1 207.7 1372.1 207.9C1373.1 207.8 1373.7 207 1373.9 206.4 1373.8 205.4 1373 204.8 1372.4 204.6L1362.2 204.2 1354.4 195.7 1377.6 196.5C1378.6 196.5 1379.2 195.6 1379.3 195 1378.7 193.8 1378 192.9 1377 193Z" fill="rgba(233, 213, 255, 1)"></path><path d="M640.1 501.5L605.4 541.5 590.9 542.9 572.5 515.9 578.7 502.3 628.9 485.1C629.5 484.7 629.5 484.7 630 484.4 631 483.7 631.7 482.4 631.2 480.5 630.1 478.9 628.9 478.2 626.9 478.7L583.1 494 592.9 473.3 612.2 466.3C612.2 466.3 612.7 465.9 612.7 465.9 613.8 465.2 614.5 464 613.9 462 613.8 460.6 611.6 459.7 609.7 460.3L596.9 464.3 604.4 449.2C605.1 447.9 604.5 446 602.9 444.7S599.2 445 598 446.6L591 461.4 586.5 449C585.9 447.1 583.8 446.2 581.8 446.7 580.8 447.5 579.5 449.1 580.1 451L587.1 470.3 576.6 491.4 561.4 447.5C560.9 445.6 558.7 444.7 557.3 444.9 555.7 446 554.5 447.6 555.1 449.5L572.8 499.4 566 513.3 534.3 515.6 525.6 502.9 535 450.8C535.3 449 534.3 447.4 532.5 447.1S529.1 447.9 528.8 449.6L520.6 495.5 507.2 476 510.9 456.4C511.3 454.6 510.2 453 508 452.2S504.7 452.9 504.3 454.7L502.2 468.6 492.4 454.3C491.4 452.7 489.1 452.7 487.5 453.8 485.9 454.9 485.5 456.7 486.6 458.3L496.4 472.5 483 470C480.9 469.2 479.3 470.2 479.3 472.5 479 474.3 480.1 475.9 481.9 476.2L501.4 479.9 514.8 499.5 469.1 490.4C467.3 490.1 465.2 491.5 464.8 493.3S465.6 496.7 467.3 497L519.8 506.9 528.5 519.6 514.2 548.7 499.3 549.5 459.4 514.8C457.8 513.6 455.8 514.2 454.2 515.3 453 516.9 453.6 518.8 454.6 520.4L489.9 550.5 467.1 552.2 451.7 538.7C450 537.5 448.1 538 446.5 539.1 445.8 540.4 445.8 542.7 447.5 543.9L457.3 552.7 440.5 554.1C439 554.3 437.8 555.9 437.5 557.7 438 559.6 439.6 560.9 441.1 560.7L457.9 559.2 449 570C448.3 571.2 448.3 573.5 449.6 574.2 450.6 575.8 452.1 575.6 453.6 574.5 453.6 574.5 454.2 574.2 454.2 574.2L467.7 558.8 490.6 557.1 460.4 592.4C459.2 594 458.8 595.8 460.5 597 462.1 598.2 463.5 598 464.5 597.3 465.1 597 465.1 597 465.1 597L500 556.1 514.9 555.2 533.3 582.2 526.7 595.2 476.3 613.4C474.8 613.5 474 615.7 474.2 617.1 474.7 619 476.9 619.9 478.8 619.4L522.7 604.1 512.8 624.8 493.5 631.8C491.6 632.4 490.3 634 491.4 635.6 492 637.5 494.1 638.4 495.5 638.2L508.4 633.2 501 648.4C500.6 650.2 501.2 652.1 502.8 653.4 503.7 653.5 505.1 653.3 506.2 652.6 506.7 652.2 506.7 652.2 506.9 651.4L514.3 636.2 519.3 649.1C519.8 651 521.6 651.4 523 651.2 523.5 650.8 523.5 650.8 524.1 650.5 525.1 649.7 525.8 648.5 525.6 647.1L518.7 627.8 528.6 607.1 543.8 651C544.9 652.5 546.5 653.8 548.1 652.7 548.9 652.8 548.9 652.8 549.5 652.5 550.5 651.8 550.9 650 550.7 648.6L532.5 598.2 539.1 585.1 571.4 582.5 579.7 594.6 569.8 647.1C569.5 648.9 570.9 651 572.7 651.3S576.6 650.2 576.9 648.5L585.1 602.6 598.1 621.6 594.8 641.7C594.5 643.5 595.5 645.1 597.3 645.4 599.1 645.7 600.7 644.6 601 642.9L603.5 629.5 613.3 643.8C614 644.9 616.1 645.7 617.7 644.6 619.3 643.6 619.8 640.9 619.1 639.8L609.4 625.6 622.7 628.1C623.6 628.2 624.5 628.4 625 628 626.1 627.3 626.2 626.4 626.4 625.5 626.7 623.8 625.6 622.2 623.9 621.8L603.9 617.6 591 598.6 636.7 607.7C637.6 607.9 638.1 607.5 639.1 606.8 639.7 606.4 640.2 606 640.4 605.2 640.7 603.4 639.3 601.3 637.5 600.9L585.5 590.7 577.2 578.5 590.9 549.8 606 548 646.3 583.3C647.6 584 649.4 584.3 650.4 583.6 651 583.2 651 583.2 650.6 582.7 652.2 581.6 652.2 579.3 650.5 578.1L615.2 547.9 638.7 545.9 654.1 559.4C655.3 560.1 656.7 559.9 657.8 559.2 657.8 559.2 658.3 558.8 658.3 558.8 659.9 557.7 659.9 555.4 658.3 554.2L647.5 545.3 664.4 543.8C665.3 544 665.8 543.6 666.3 543.3 667.4 542.6 668.1 541.3 667.7 540.8 667.7 538.5 666.1 537.2 664.3 536.9L647.4 538.3 656.2 528.5C657.4 526.9 657.4 524.6 655.8 523.3 654.6 522.6 652.2 522.7 651.6 523.9L638.1 539.3 615.2 541 645.3 505.7C646.5 504.1 646 502.1 644.9 500.6 643.7 499.9 641.3 499.9 640.1 501.5ZM568.8 523L582.9 543.7 585.1 546.8 583.5 550.2 572.9 572.2 570.8 575.9 567.1 576.1 542.8 578 539.1 578.2 536.9 575.1 522.8 554.4 520.7 551.3 522.2 547.9 532.8 525.9 534.4 522.5 538.6 522 562.9 520.1 566.7 519.9 568.8 523Z" fill="rgba(233, 213, 255, 1)"></path><path d="M1062.4 93.9L1095.6 95.3 1115.4 117.3 1086.5 123.5 1058.7 105.3C1058.7 105.3 1058.4 105.2 1058.4 105.2 1057.6 104.9 1056.6 105.5 1056 106.1 1055.2 107.1 1055.6 108.5 1056.8 108.9L1081.1 124.7 1067.1 127.7 1056.3 120.9C1056.3 120.9 1055.9 120.8 1055.9 120.8 1055.1 120.5 1054.1 121.1 1053.5 121.7 1052.7 122.7 1053.1 124.1 1054.3 124.5L1061.5 129.3 1051.2 131.5C1050.3 131.6 1049.4 133 1049.6 133.9 1049.6 135.1 1051.1 135.6 1052 135.5L1062.3 133.4 1057.5 140.6C1056.7 141.6 1057.1 143 1058.3 143.4 1059.3 144.1 1060.7 143.8 1061 142.6L1067.9 131.8 1081.8 129.1 1065.9 153.4C1065.2 154.5 1065.6 155.8 1066.7 156.2 1067.8 157 1069.1 156.6 1069.5 155.4L1087.7 127.7 1116.6 121.4 1107.4 150 1077.7 165.2C1076.7 165.7 1076.3 166.9 1076.8 167.9 1077.4 168.9 1078.5 169.2 1079.5 168.7L1105.7 155.3 1101.3 169 1090.2 174.7C1089.2 175.2 1088.8 176.4 1089.3 177.4 1089.9 178.4 1091 178.7 1092 178.2L1099.6 174.3 1096.1 185C1095.4 186 1096.3 187.2 1097.4 187.5 1098.6 187.9 1099.6 187.4 1099.9 186.2L1103.1 176.3 1107 183.9C1107.5 184.9 1108.6 185.3 1109.7 184.7S1111 183.1 1110.5 182.1L1104.8 171 1109.2 157.3 1122.7 183.5C1123.2 184.5 1124.3 184.8 1125.3 184.3 1126.3 183.8 1126.7 182.7 1126.2 181.7L1111 152 1120 123.8 1139.9 145.7 1138.3 178C1138.3 179.3 1139.3 180 1140.5 180.4 1141.7 180.4 1142.5 179.3 1142.9 178.2L1144.2 149.2 1153.8 159.9 1153 172.7C1153.1 173.9 1154.1 174.7 1155.2 175 1156.5 175 1157.2 174 1157.5 173.3L1157.8 164.5 1164.9 172.3C1165.6 172.9 1167.1 173.4 1167.8 172.4 1168.6 171.4 1169 170.2 1167.9 169.5L1160.8 161.7 1169.5 162C1170.8 162 1171.5 161 1171.8 160.2 1171.6 159.3 1171.1 158.3 1170.4 158.1 1170.4 158.1 1170 157.9 1170 157.9L1157.2 157.2 1147.6 146.5 1176.6 147.9C1177.8 147.9 1178.6 146.9 1178.8 146.1 1178.7 145.2 1178.2 144.2 1177.4 144 1177.4 144 1177 143.8 1177 143.8L1143.9 142.4 1124 120.5 1153 114.2 1180.7 132.4C1181.7 133.2 1183.1 132.8 1183.5 131.6 1184.2 130.6 1183.8 129.2 1182.7 128.8L1158.4 113 1172.4 110 1183.2 116.8C1184.2 117.6 1185.6 117.2 1186 116 1186.7 115 1186.3 113.6 1185.2 113.3L1177.9 108.4 1188.3 106.3C1189.2 106.1 1190 104.7 1189.9 103.9 1189.8 103 1189.1 102.3 1188.4 102.1 1188 102 1187.6 101.9 1187.1 102.1L1176.8 104.2 1181.6 97C1182.4 96 1182 94.6 1180.8 94.2 1180.8 94.2 1180.5 94.1 1180.5 94.1 1179.7 93.8 1178.7 94.4 1178.1 95L1171.2 105.8 1157.2 108.9 1173 84.5C1173.8 83.5 1173.4 82.1 1172.2 81.8 1172.2 81.8 1171.8 81.6 1171.8 81.6 1171.1 81.4 1170.1 81.9 1169.5 82.6L1151.3 110.3 1122.4 116.6 1131.4 88.4 1161.1 73.2C1162.1 72.6 1162.5 71.5 1162 70.5 1161.5 69.5 1160.3 69.1 1159.3 69.6L1133.3 82.7 1137.7 69 1148.8 63.3C1149.8 62.8 1150.1 61.6 1149.6 60.6S1148 59.2 1147 59.8L1139.4 63.6 1142.6 53.7C1143 52.6 1142.4 51.6 1141.3 51.2 1140.2 50.9 1139.2 51.4 1138.8 52.5L1135.6 62.4 1131.7 54.9C1131.5 54.4 1131.2 53.9 1130.5 53.6S1129.2 53.6 1128.7 53.9C1127.7 54.4 1127.3 55.5 1127.8 56.5L1133.5 67.6 1129.1 81.3 1115.7 55.1C1115.4 54.6 1115.1 54.1 1114.4 53.9 1114 53.8 1113.1 53.9 1112.6 54.2 1111.6 54.7 1111.2 55.8 1111.8 56.8L1127 86.5 1117.9 114.7 1098.1 92.8 1099.5 59.6C1099.4 58.7 1098.9 57.7 1098.1 57.5 1098.1 57.5 1097.7 57.4 1097.7 57.4 1096.5 57.4 1095.7 58.4 1095.5 59.2L1094.1 88.1 1084.5 77.5 1085.3 64.7C1085.1 63.8 1084.6 62.8 1083.9 62.6 1083.9 62.6 1083.5 62.4 1083.5 62.4 1082.2 62.4 1081.5 63.5 1081.2 64.2L1080.9 73 1073.8 65.2C1073.4 65.1 1073.1 64.6 1072.8 64.4 1072 64.2 1071.1 64.3 1070.5 65 1069.7 66 1069.4 67.1 1070.4 67.9L1077.5 75.7 1068.8 75.4C1067.5 75.4 1066.8 76.4 1066.6 77.2 1066.6 78.4 1067.6 79.2 1068.4 79.4L1081.1 80.2 1090.7 90.8 1061.7 89.5C1060.5 89.5 1059.7 90.5 1059.5 91.3 1060.3 92.8 1061.2 93.9 1062.4 93.9Z" fill="rgba(233, 213, 255, 1)"></path><path d="M740.6 127.3L767.8 162.8 765.3 178.9 756.2 166.9C755.5 165.4 753.8 165.5 752.2 166.1 751.4 167.1 751 169 751.9 169.9L764.2 186.6 762.2 202.6 749.7 192.6 747.3 171.8C747.3 171.8 747 171.3 747 171.3 746.6 170.2 745.2 169.6 743.9 169.5 742.4 170.1 741.5 171.1 741.6 172.9L743.5 187.8 731 177.8 725 133.7C725 133.7 725.4 132.9 725.4 132.9 724.9 131.9 723.5 131.3 722.2 131.2 720.5 131.3 719.3 133 720 134.5L724.8 173.1 709.1 161.3 706.9 144.1C706.9 144.1 706.9 144.1 706.7 143.6 706.3 142.5 705.3 141.7 704.1 141.6 702.5 142.2 701.2 143.4 701.3 145.2L703 156.6 691.6 147.9C690.4 146.6 688.8 147.2 688 148.2 686.7 149.3 686.8 151.1 688.5 152.2L699.3 161.1 688.2 162C686.7 162.6 685.3 163.8 686 165.3 686.1 167.1 687 167.9 688.8 167.8L706 165.6 721.2 177.6 682.1 182.6C680.9 182.5 679.7 184.2 679.9 186 680.3 187 681.4 188.4 683.2 188.2L727.4 182.3 739.9 192.3 724.9 194.2C723.2 194.3 722.6 195.8 722.7 197.5 722.6 198.8 724.3 199.9 725.5 200L746.1 197.1 759.1 206.8 744.1 213 725.1 205C723.7 204.4 722.1 205 721.5 206.5 720.7 207.4 721.5 209.5 723 210.1L736.8 215.9 721.8 222.1 680.7 204.4C679.3 203.8 677.7 204.4 677.1 205.9 676.5 207.3 677.1 208.9 678.6 209.5L714.6 225 696.9 232.2 680.9 225.5C679.4 224.9 677.8 225.5 677.2 227 676.6 228.4 677.3 230 678.7 230.6L689.1 235.4 676.2 240.7C674.6 241.3 674 242.8 674.7 244.3 675.3 245.9 676.7 246.5 678.3 245.9L691.3 240.6 687 250.8C686.4 252.3 687 253.8 688.4 254.4S691.5 254.4 692.1 253L698.5 237.6 716.7 230.2 701.6 266C701 267.5 701.7 269 703.1 269.6 704.6 270.2 706.1 269.6 706.7 268.1L723.9 227.3 739 221.1 733.1 235C732.5 236.5 733.2 238 734.6 238.6 736.1 239.2 737.6 238.6 738.2 237.1L746.2 218.2 760.7 212.2 758.6 227.6 742 240.4C741.2 241.4 740.8 243.4 741.7 244.2 742.9 245.5 744.1 245.6 745.7 245L757.7 235.9 755.5 251.3 720 278.5C718.7 279.6 718.6 280.9 719.2 282.4 720.4 283.8 722.1 283.6 723.2 283.2L754.6 259.5 751.6 278.9 738.3 289.1C736.7 289.8 736.9 291.5 737.5 293.1 738.4 293.9 740.4 294.3 741.8 293.2L750.5 286.6 749 300.5C748.4 302 749.5 303.3 751.5 303.7 752.7 303.8 754.1 302.7 754.2 301.4L756.3 287.2 763.1 296.6C764.3 297.9 766 297.8 766.8 296.8 768.4 296.2 768.5 295 768.1 293.9 767.9 293.4 767.9 293.4 767.6 292.9L757.4 279.5 760.3 260.2 783.9 291.1C784.5 292.7 786.3 292.6 787.8 291.9 788.6 291 788.7 289.7 788.3 288.7 788.1 288.2 788.1 288.2 788.1 288.2L761.2 252 763.4 236.6 772.5 248.6C773.7 249.9 774.9 250 776.5 249.4 777.3 248.4 777.9 247 777.5 245.9 777.3 245.4 777.3 245.4 777.1 244.9L764.3 228.3 766.5 212.9 778.8 222.4 781.8 243C781.9 244.7 783.5 245.9 784.8 246 786.3 245.3 787.7 244.2 787.1 242.6L785.2 227.7 798 236.9 803.7 281.8C803.6 283.1 805.2 284.2 806.5 284.3 808 283.7 809.4 282.5 809.3 280.7L804.4 242.2 819.6 254.2 821.6 270.9C821.7 272.7 823.4 273.8 824.9 273.1 826.2 273.2 827.5 272.1 827.4 270.3L825.7 258.9 837.1 267.6C838.1 268.4 839.9 268.3 841.2 267.1 841.5 266.4 841.6 265.1 841.2 264.1 841.2 264.1 841 263.6 840.8 263.1L829.4 254.4 840.8 252.8C842 252.9 843.2 251.2 843.3 249.9 843.1 249.4 843.1 249.4 843.1 249.4 842.4 247.9 841 247.2 839.9 247.7L823.2 249.7 807.5 237.9 846.6 232.9C848.1 232.2 849 231.3 848.8 229.5 848.8 229.5 848.6 229 848.6 229 848.2 228 847.3 227.1 845.5 227.2L801.1 232.7 788.8 223.2 803.8 221.3C805.3 220.7 806.7 219.5 806 218 806.5 217.7 806.3 217.2 806.3 217.2 805.9 216.2 804.4 215.6 803.2 215.5L782.6 218.4 770.1 208.4 784.6 202.5 803.6 210.5C805 211.1 807.1 210.3 807.7 208.8 807.8 207.5 807.2 206 806.2 205.2L791.9 199.5 806.9 193.4 847.8 210.6C849.2 211.2 850.8 210.6 851.4 209.1 852 207.7 851.4 206.1 849.9 205.5L814.1 190.4 832.3 183 847.6 189.5C849.1 190.1 850.6 189.5 851.3 188S851.2 185 849.8 184.4L839.6 180.1 852.5 174.8C854.1 174.2 854.7 172.7 854 171.1 853.4 169.6 852 169 850.4 169.6L837.4 174.9 841.5 164.2C841.8 163.4 842.1 162.7 841.9 162.2 841.7 161.7 840.8 160.8 840 160.5 838.6 159.9 837 160.5 836.4 162L830.2 177.9 812 185.3 826.9 149C827.2 148.2 827.5 147.5 827.3 147 827 146.5 826.1 145.6 825.4 145.3 823.9 144.7 822.4 145.4 821.7 146.8L804.8 188.2 789.7 194.4 796.1 180.3C796.4 179.5 796 178.5 795.8 178 795.5 177.5 795.3 177 794.6 176.6 793.1 176 791.1 176.9 791 178.1L782.5 197.3 768 203.2 769.9 187.3 786.7 175C787.5 174.1 788.1 172.6 787.7 171.6 787.5 171.1 787.5 171.1 787 171.3 786.3 169.7 784.4 169.3 783 170.5L771 179.6 773 163.7 809.2 136.8C810 135.9 810.1 134.6 809.7 133.6 809.5 133.1 809.5 133.1 809.5 133.1 808.3 131.7 806.9 131.1 805.5 132.3L774.1 156 777.1 136.6 790.4 126.3C791.8 125.2 791.8 123.9 791.4 122.9 791.4 122.9 791.2 122.4 791.2 122.4 790.1 121 788.3 121.2 787.3 121.6L778.2 128.9 780.2 114.8C780 114.3 779.8 113.7 779.6 113.2 779.4 112.7 778.5 111.9 777.7 111.6 776 111.7 774.4 112.3 774.5 114.1L772.4 128.2 765.6 118.9C764.5 117.6 762.7 117.7 761.6 118.1 760.3 119.3 760.4 121 761.1 122.6L771.3 135.9 768.9 155.1 745.4 124.2C744.2 122.8 742.2 122.4 741.4 123.4 740.1 124.5 739.4 126 740.6 127.3Z" fill="rgba(233, 213, 255, 1)"></path></g><defs><mask id="SvgjsMask1008"><rect width="1440" height="650" fill="#ffffff"></rect></mask><filter id="SvgjsFilter1009"><feGaussianBlur stdDeviation="1"></feGaussianBlur></filter></defs></svg>