<svg xmlns="http://www.w3.org/2000/svg" version="1.1" xmlns:xlink="http://www.w3.org/1999/xlink" xmlns:svgjs="http://svgjs.dev/svgjs" width="1440" height="600" preserveAspectRatio="none" viewBox="0 0 1440 600"><g mask="url(&quot;#SvgjsMask1006&quot;)" fill="none"><rect width="1440" height="600" x="0" y="0" fill="rgba(168, 85, 247, 1)"></rect><path d="M 0,107 C 57.6,137.2 172.8,273.4 288,258 C 403.2,242.6 460.8,27.8 576,30 C 691.2,32.2 748.8,249 864,269 C 979.2,289 1036.8,151 1152,130 C 1267.2,109 1382.4,157.2 1440,164L1440 600L0 600z" fill="rgba(192, 132, 252, 1)"></path><path d="M 0,515 C 96,478 288,318 480,330 C 672,342 768,559.6 960,575 C 1152,590.4 1344,440.6 1440,407L1440 600L0 600z" fill="rgba(216, 180, 254, 1)"></path></g><defs><mask id="SvgjsMask1006"><rect width="1440" height="600" fill="#ffffff"></rect></mask></defs></svg>